<svg width="167" height="40" viewBox="0 0 167 40" fill="none" xmlns="http://www.w3.org/2000/svg">
<g clip-path="url(#clip0)">
<rect width="1440" height="980" transform="translate(-30 -20)" fill="white"/>
<rect x="-30" y="-20" width="280" height="920" fill="white"/>
<path d="M48.3117 20.3086H55.3436V22.9714H45V6.88393H48.3117V20.3086Z" fill="#3C425F"/>
<path d="M62.7671 23.1924C61.0156 23.1924 59.5879 22.6547 58.484 21.5792C57.3874 20.5038 56.8391 19.0711 56.8391 17.2811V16.9718C56.8391 15.7711 57.071 14.6993 57.5346 13.7565C57.9982 12.8063 58.6532 12.077 59.4995 11.5688C60.3532 11.0531 61.3247 10.7953 62.4138 10.7953C64.0476 10.7953 65.3318 11.3109 66.2665 12.3422C67.2085 13.3734 67.6795 14.8356 67.6795 16.7287V18.0325H60.0736C60.1766 18.8133 60.4857 19.4394 61.0009 19.9108C61.5234 20.3823 62.182 20.618 62.9768 20.618C64.2058 20.618 65.1662 20.1723 65.858 19.281L67.4256 21.0378C66.9472 21.7155 66.2996 22.2459 65.4827 22.6289C64.6658 23.0046 63.7606 23.1924 62.7671 23.1924ZM62.4028 13.3808C61.7699 13.3808 61.2547 13.5944 60.8573 14.0217C60.4673 14.4489 60.2171 15.0603 60.1067 15.8558H64.5444V15.6017C64.5297 14.8945 64.3383 14.3494 63.9703 13.9664C63.6024 13.576 63.0799 13.3808 62.4028 13.3808Z" fill="#3C425F"/>
<path d="M73.5465 8.07723V11.0163H75.5887V13.3587H73.5465V19.3252C73.5465 19.7672 73.6311 20.0839 73.8004 20.2754C73.9696 20.467 74.2935 20.5627 74.7718 20.5627C75.1251 20.5627 75.4378 20.5369 75.7101 20.4854V22.9051C75.0846 23.0967 74.4406 23.1924 73.7783 23.1924C71.5411 23.1924 70.4004 22.0617 70.3562 19.8003V13.3587H68.612V11.0163H70.3562V8.07723H73.5465Z" fill="#3C425F"/>
<path d="M78.7732 11.8229L77.2719 10.95C77.9048 9.95558 78.2323 8.92801 78.2544 7.8673V6H80.7934V7.71261C80.7934 8.37556 80.6094 9.09375 80.2414 9.86719C79.8735 10.6406 79.3841 11.2925 78.7732 11.8229Z" fill="#3C425F"/>
<path d="M87.1792 19.6677C87.1792 19.2773 86.9842 18.9717 86.5942 18.7507C86.2115 18.5223 85.5933 18.3198 84.7396 18.143C81.8989 17.5463 80.4785 16.3383 80.4785 14.5189C80.4785 13.4581 80.9164 12.5742 81.7922 11.8671C82.6753 11.1526 83.8271 10.7953 85.2474 10.7953C86.7634 10.7953 87.9741 11.1526 88.8792 11.8671C89.7918 12.5816 90.2481 13.5097 90.2481 14.6515H87.0578C87.0578 14.1948 86.9106 13.8191 86.6162 13.5244C86.3219 13.2224 85.8619 13.0714 85.2364 13.0714C84.6991 13.0714 84.2833 13.193 83.989 13.436C83.6946 13.6791 83.5474 13.9885 83.5474 14.3642C83.5474 14.7177 83.713 15.005 84.0442 15.226C84.3827 15.4396 84.9494 15.6275 85.7442 15.7895C86.539 15.9442 87.2087 16.121 87.7533 16.3199C89.4386 16.9386 90.2812 18.0104 90.2812 19.5352C90.2812 20.6253 89.8139 21.5093 88.8792 22.1869C87.9446 22.8573 86.7377 23.1924 85.2584 23.1924C84.2576 23.1924 83.3671 23.0156 82.587 22.6621C81.8143 22.3011 81.2071 21.8113 80.7656 21.1925C80.324 20.5664 80.1032 19.8924 80.1032 19.1705H83.1279C83.1574 19.7377 83.3671 20.1723 83.7571 20.4743C84.1472 20.7763 84.6697 20.9273 85.3247 20.9273C85.9355 20.9273 86.3955 20.8132 86.7046 20.5848C87.021 20.3491 87.1792 20.0434 87.1792 19.6677Z" fill="#3C425F"/>
<path d="M106.972 18.7507C106.972 18.1246 106.751 17.6458 106.309 17.3143C105.868 16.9754 105.073 16.6219 103.925 16.2536C102.777 15.8779 101.868 15.5096 101.198 15.1487C99.3732 14.1616 98.4607 12.832 98.4607 11.1599C98.4607 10.2907 98.7035 9.5173 99.1893 8.83962C99.6823 8.15458 100.385 7.62054 101.298 7.2375C102.218 6.85446 103.248 6.66295 104.389 6.66295C105.537 6.66295 106.56 6.87288 107.457 7.29275C108.355 7.70525 109.051 8.29085 109.544 9.04955C110.044 9.80826 110.295 10.6701 110.295 11.635H106.983C106.983 10.8984 106.751 10.3276 106.287 9.92243C105.824 9.50993 105.172 9.30368 104.333 9.30368C103.524 9.30368 102.895 9.47679 102.446 9.82299C101.997 10.1618 101.772 10.6112 101.772 11.171C101.772 11.694 102.034 12.1323 102.556 12.4858C103.086 12.8394 103.862 13.1709 104.885 13.4802C106.769 14.0474 108.142 14.7509 109.003 15.5906C109.864 16.4304 110.295 17.4763 110.295 18.7286C110.295 20.1208 109.768 21.2146 108.716 22.0102C107.664 22.7983 106.247 23.1924 104.466 23.1924C103.23 23.1924 102.104 22.9677 101.088 22.5184C100.072 22.0617 99.296 21.4393 98.7587 20.6511C98.2289 19.8629 97.9639 18.9496 97.9639 17.9109H101.287C101.287 19.6862 102.346 20.5738 104.466 20.5738C105.253 20.5738 105.868 20.4154 106.309 20.0987C106.751 19.7746 106.972 19.3252 106.972 18.7507Z" fill="#3C425F"/>
<path d="M123.315 17.1044C123.315 18.9459 122.895 20.4228 122.056 21.535C121.225 22.64 120.099 23.1924 118.678 23.1924C117.472 23.1924 116.496 22.7725 115.753 21.9328V27.5679H112.563V11.0163H115.521L115.632 12.1875C116.404 11.2594 117.413 10.7953 118.656 10.7953C120.128 10.7953 121.273 11.3404 122.09 12.4306C122.906 13.5208 123.315 15.0234 123.315 16.9386V17.1044ZM120.125 16.8723C120.125 15.76 119.926 14.9019 119.528 14.2979C119.138 13.6939 118.568 13.3919 117.817 13.3919C116.817 13.3919 116.128 13.7749 115.753 14.541V19.4357C116.143 20.2239 116.839 20.618 117.839 20.618C119.363 20.618 120.125 19.3694 120.125 16.8723Z" fill="#3C425F"/>
<path d="M131.025 23.1924C129.274 23.1924 127.846 22.6547 126.742 21.5792C125.646 20.5038 125.097 19.0711 125.097 17.2811V16.9718C125.097 15.7711 125.329 14.6993 125.793 13.7565C126.257 12.8063 126.911 12.077 127.758 11.5688C128.612 11.0531 129.583 10.7953 130.672 10.7953C132.306 10.7953 133.59 11.3109 134.525 12.3422C135.467 13.3734 135.938 14.8356 135.938 16.7287V18.0325H128.332C128.435 18.8133 128.744 19.4394 129.259 19.9108C129.782 20.3823 130.44 20.618 131.235 20.618C132.464 20.618 133.425 20.1723 134.116 19.281L135.684 21.0378C135.205 21.7155 134.558 22.2459 133.741 22.6289C132.924 23.0046 132.019 23.1924 131.025 23.1924ZM130.661 13.3808C130.028 13.3808 129.513 13.5944 129.116 14.0217C128.726 14.4489 128.475 15.0603 128.365 15.8558H132.803V15.6017C132.788 14.8945 132.597 14.3494 132.229 13.9664C131.861 13.576 131.338 13.3808 130.661 13.3808Z" fill="#3C425F"/>
<path d="M144.907 22.9714C144.76 22.6842 144.653 22.3269 144.587 21.8997C143.814 22.7615 142.809 23.1924 141.573 23.1924C140.403 23.1924 139.431 22.8536 138.659 22.1759C137.893 21.4982 137.511 20.6438 137.511 19.6125C137.511 18.3455 137.978 17.3732 138.913 16.6955C139.855 16.0179 141.212 15.6753 142.986 15.668H144.454V14.9829C144.454 14.4305 144.311 13.9885 144.024 13.657C143.744 13.3256 143.299 13.1598 142.688 13.1598C142.151 13.1598 141.727 13.2887 141.418 13.5465C141.117 13.8044 140.966 14.1579 140.966 14.6073H137.776C137.776 13.9148 137.989 13.274 138.416 12.6847C138.843 12.0954 139.446 11.635 140.226 11.3036C141.006 10.9647 141.882 10.7953 142.853 10.7953C144.325 10.7953 145.492 11.1673 146.353 11.9113C147.221 12.6479 147.655 13.6865 147.655 15.0271V20.2092C147.663 21.3435 147.821 22.2017 148.13 22.7836V22.9714H144.907ZM142.268 20.7506C142.739 20.7506 143.174 20.6474 143.571 20.4412C143.968 20.2276 144.263 19.944 144.454 19.5904V17.5353H143.262C141.665 17.5353 140.815 18.0877 140.712 19.1926L140.701 19.3805C140.701 19.7782 140.841 20.106 141.12 20.3638C141.4 20.6217 141.783 20.7506 142.268 20.7506Z" fill="#3C425F"/>
<path d="M154.671 18.1761L153.522 19.3252V22.9714H150.332V6H153.522V15.4028L154.141 14.6073L157.198 11.0163H161.029L156.713 15.9994L161.404 22.9714H157.739L154.671 18.1761Z" fill="#3C425F"/>
<path d="M49.7026 30.1105V36.0881H49.0403V33.6794H47.1857L45.7286 36.0881H45L46.5013 33.5965C46.0929 33.4897 45.7746 33.2834 45.5464 32.9777C45.322 32.672 45.2097 32.3111 45.2097 31.8949C45.2097 31.3535 45.4029 30.9208 45.7893 30.5967C46.1793 30.2725 46.7055 30.1105 47.3679 30.1105H49.7026ZM45.8721 31.906C45.8721 32.2559 45.9825 32.5431 46.2033 32.7678C46.4277 32.9925 46.7386 33.1085 47.1361 33.1158H49.0403V30.674H47.3513C46.8914 30.674 46.5289 30.7845 46.264 31.0055C46.0027 31.2265 45.8721 31.5266 45.8721 31.906Z" fill="#3C425F"/>
<path d="M56.963 31.6905C56.963 31.3296 56.8287 31.0515 56.5601 30.8563C56.2915 30.6611 55.9216 30.5635 55.4506 30.5635C55.0238 30.5635 54.6577 30.674 54.3523 30.895C54.0505 31.1123 53.8997 31.3885 53.8997 31.7237H53.2428C53.2428 31.2265 53.4544 30.8158 53.8776 30.4917C54.3044 30.1676 54.8288 30.0055 55.4506 30.0055C56.1351 30.0055 56.6686 30.1528 57.0513 30.4475C57.434 30.7421 57.6253 31.1602 57.6253 31.7016C57.6253 31.9888 57.537 32.2485 57.3604 32.4805C57.1838 32.7126 56.9262 32.893 56.5877 33.0219C57.353 33.2319 57.7357 33.707 57.7357 34.4473C57.7357 34.985 57.5278 35.4104 57.112 35.7234C56.6962 36.0365 56.1443 36.193 55.4562 36.193C54.7901 36.193 54.2382 36.0254 53.8003 35.6903C53.3624 35.3551 53.1435 34.9169 53.1435 34.3754H53.8058C53.8058 34.7364 53.9641 35.0384 54.2805 35.2815C54.6006 35.5209 54.9925 35.6406 55.4562 35.6406C55.9603 35.6406 56.354 35.5356 56.6373 35.3257C56.9244 35.1121 57.0679 34.8229 57.0679 34.4583C57.0679 34.0569 56.9372 33.7677 56.676 33.591C56.4147 33.4142 56.0155 33.3258 55.4782 33.3258H54.5675V32.7512H55.5886C56.5049 32.7291 56.963 32.3756 56.963 31.6905Z" fill="#3C425F"/>
<path d="M61.8996 32.2816H63.6217C64.0633 32.2816 64.4497 32.3627 64.7808 32.5247C65.1157 32.6831 65.3677 32.9041 65.537 33.1877C65.71 33.4713 65.7964 33.8009 65.7964 34.1766C65.7964 34.7548 65.5977 35.2189 65.2003 35.5688C64.8066 35.915 64.273 36.0881 63.5997 36.0881H61.2428V30.1105H61.8996V32.2816ZM61.8996 32.8451V35.5301H63.6107C64.0854 35.5301 64.457 35.4104 64.7256 35.171C64.9979 34.9316 65.1341 34.6038 65.1341 34.1876C65.1341 33.7898 65.0016 33.4694 64.7367 33.2263C64.4754 32.9796 64.1167 32.8525 63.6604 32.8451H61.8996ZM67.8221 36.0881H67.1597V30.1105H67.8221V36.0881Z" fill="#3C425F"/>
<path d="M73.261 33.3479H72.3448V36.0881H71.6769V30.1105H72.3448V32.7623H73.25L75.4412 30.1105H76.2747L73.824 33.0109L76.5451 36.0881H75.673L73.261 33.3479Z" fill="#3C425F"/>
<path d="M78.9925 33.0109C78.9925 32.4363 79.1029 31.9189 79.3236 31.4585C79.5481 30.9981 79.8627 30.6408 80.2675 30.3867C80.6759 30.1289 81.1377 30 81.6529 30C82.4477 30 83.0916 30.2799 83.5847 30.8397C84.0778 31.3959 84.3243 32.1343 84.3243 33.0551V33.1932C84.3243 33.7714 84.2121 34.2926 83.9876 34.7566C83.7669 35.217 83.4541 35.5724 83.0493 35.8229C82.6446 36.0733 82.1828 36.1985 81.6639 36.1985C80.8728 36.1985 80.2288 35.9205 79.7321 35.3643C79.239 34.8045 78.9925 34.0642 78.9925 33.1435V33.0109ZM79.6548 33.1932C79.6548 33.9077 79.8388 34.4951 80.2068 34.9555C80.5784 35.4122 81.0641 35.6406 81.6639 35.6406C82.26 35.6406 82.7421 35.4122 83.11 34.9555C83.4817 34.4951 83.6675 33.8893 83.6675 33.1379V33.0109C83.6675 32.5542 83.5829 32.1362 83.4136 31.7568C83.2443 31.3775 83.007 31.0847 82.7016 30.8784C82.3962 30.6685 82.0466 30.5635 81.6529 30.5635C81.0641 30.5635 80.5839 30.7955 80.2123 31.2596C79.8406 31.72 79.6548 32.324 79.6548 33.0717V33.1932Z" fill="#3C425F"/>
<path d="M87.7431 36.0881V30.1105H89.9344C90.6924 30.1105 91.2738 30.2468 91.6785 30.5193C92.0833 30.7882 92.2857 31.1841 92.2857 31.7071C92.2857 32.0054 92.1955 32.2724 92.0152 32.5081C91.8349 32.7402 91.5718 32.9096 91.2259 33.0164C91.616 33.0901 91.9287 33.2576 92.1642 33.5191C92.4034 33.7806 92.523 34.0845 92.523 34.4307C92.523 34.9574 92.328 35.3662 91.9379 35.6571C91.5516 35.9444 91.0033 36.0881 90.2931 36.0881H87.7431ZM88.3999 33.3368V35.5356H90.3152C90.812 35.5356 91.1946 35.4398 91.4633 35.2483C91.7319 35.0568 91.8662 34.7806 91.8662 34.4196C91.8662 34.0882 91.7319 33.8248 91.4633 33.6296C91.1946 33.4344 90.812 33.3368 90.3152 33.3368H88.3999ZM88.3999 32.7844H90.0723C91.11 32.7696 91.6288 32.4161 91.6288 31.7237C91.6288 31.359 91.4853 31.0939 91.1983 30.9281C90.915 30.7587 90.4937 30.674 89.9344 30.674H88.3999V32.7844Z" fill="#3C425F"/>
<path d="M99.7447 36.0881C99.6785 35.9002 99.6362 35.6222 99.6178 35.2539C99.386 35.5559 99.0898 35.7897 98.7292 35.9555C98.3722 36.1175 97.9932 36.1985 97.5921 36.1985C97.0181 36.1985 96.5526 36.0383 96.1957 35.7179C95.8424 35.3975 95.6658 34.9924 95.6658 34.5025C95.6658 33.9206 95.9068 33.4602 96.3889 33.1214C96.8746 32.7825 97.5498 32.6131 98.4145 32.6131H99.6123V31.9336C99.6123 31.5064 99.4798 31.1712 99.2149 30.9281C98.9536 30.6814 98.5709 30.558 98.0668 30.558C97.6068 30.558 97.226 30.6758 96.9243 30.9116C96.6225 31.1473 96.4717 31.4309 96.4717 31.7623L95.8093 31.7568C95.8093 31.2817 96.0301 30.871 96.4717 30.5248C96.9132 30.1749 97.456 30 98.0999 30C98.7659 30 99.2903 30.1676 99.673 30.5027C100.059 30.8342 100.258 31.2983 100.269 31.8949V34.7235C100.269 35.3017 100.33 35.7345 100.451 36.0218V36.0881H99.7447ZM97.6694 35.6129C98.111 35.6129 98.5047 35.5061 98.8506 35.2925C99.2001 35.0789 99.454 34.7935 99.6123 34.4362V33.1214H98.4311C97.7724 33.1287 97.2573 33.2503 96.8856 33.486C96.514 33.718 96.3282 34.0384 96.3282 34.4473C96.3282 34.7824 96.4514 35.0605 96.698 35.2815C96.9482 35.5025 97.272 35.6129 97.6694 35.6129Z" fill="#3C425F"/>
<path d="M108.368 30.1105V36.0881H107.706V33.6794H105.852L104.394 36.0881H103.666L105.167 33.5965C104.759 33.4897 104.44 33.2834 104.212 32.9777C103.988 32.672 103.876 32.3111 103.876 31.8949C103.876 31.3535 104.069 30.9208 104.455 30.5967C104.845 30.2725 105.371 30.1105 106.034 30.1105H108.368ZM104.538 31.906C104.538 32.2559 104.648 32.5431 104.869 32.7678C105.094 32.9925 105.404 33.1085 105.802 33.1158H107.706V30.674H106.017C105.557 30.674 105.195 30.7845 104.93 31.0055C104.669 31.2265 104.538 31.5266 104.538 31.906Z" fill="#3C425F"/>
<path d="M120.662 30.1105V35.5301H123.317V30.1105H123.98V35.5301H126.612V30.1105H127.275V36.0881H120V30.1105H120.662Z" fill="#3C425F"/>
<path d="M132.532 33.3479H131.615V36.0881H130.947V30.1105H131.615V32.7623H132.52L134.712 30.1105H135.545L133.094 33.0109L135.816 36.0881H134.944L132.532 33.3479Z" fill="#3C425F"/>
<path d="M138.263 33.0109C138.263 32.4363 138.373 31.9189 138.594 31.4585C138.819 30.9981 139.133 30.6408 139.538 30.3867C139.946 30.1289 140.408 30 140.923 30C141.718 30 142.362 30.2799 142.855 30.8397C143.348 31.3959 143.595 32.1343 143.595 33.0551V33.1932C143.595 33.7714 143.483 34.2926 143.258 34.7566C143.037 35.217 142.725 35.5724 142.32 35.8229C141.915 36.0733 141.453 36.1985 140.934 36.1985C140.143 36.1985 139.499 35.9205 139.003 35.3643C138.51 34.8045 138.263 34.0642 138.263 33.1435V33.0109ZM138.925 33.1932C138.925 33.9077 139.109 34.4951 139.477 34.9555C139.849 35.4122 140.335 35.6406 140.934 35.6406C141.531 35.6406 142.013 35.4122 142.381 34.9555C142.752 34.4951 142.938 33.8893 142.938 33.1379V33.0109C142.938 32.5542 142.853 32.1362 142.684 31.7568C142.515 31.3775 142.277 31.0847 141.972 30.8784C141.667 30.6685 141.317 30.5635 140.923 30.5635C140.335 30.5635 139.854 30.7955 139.483 31.2596C139.111 31.72 138.925 32.324 138.925 33.0717V33.1932Z" fill="#3C425F"/>
<path d="M151.446 30.1105V36.0881H150.783V30.6795H148.338L148.233 32.917C148.189 33.7456 148.106 34.3791 147.985 34.8174C147.864 35.252 147.683 35.5724 147.444 35.7787C147.205 35.9849 146.887 36.0881 146.489 36.0881H146.235V35.5025L146.44 35.4914C146.819 35.484 147.091 35.2999 147.256 34.939C147.422 34.578 147.531 33.9335 147.582 33.0054L147.704 30.1105H151.446Z" fill="#3C425F"/>
<path d="M158.971 36.0881C158.905 35.9002 158.863 35.6222 158.844 35.2539C158.612 35.5559 158.316 35.7897 157.955 35.9555C157.599 36.1175 157.22 36.1985 156.818 36.1985C156.244 36.1985 155.779 36.0383 155.422 35.7179C155.069 35.3975 154.892 34.9924 154.892 34.5025C154.892 33.9206 155.133 33.4602 155.615 33.1214C156.101 32.7825 156.776 32.6131 157.641 32.6131H158.839V31.9336C158.839 31.5064 158.706 31.1712 158.441 30.9281C158.18 30.6814 157.797 30.558 157.293 30.558C156.833 30.558 156.452 30.6758 156.151 30.9116C155.849 31.1473 155.698 31.4309 155.698 31.7623L155.036 31.7568C155.036 31.2817 155.256 30.871 155.698 30.5248C156.14 30.1749 156.682 30 157.326 30C157.992 30 158.517 30.1676 158.899 30.5027C159.286 30.8342 159.484 31.2983 159.495 31.8949V34.7235C159.495 35.3017 159.556 35.7345 159.678 36.0218V36.0881H158.971ZM156.896 35.6129C157.337 35.6129 157.731 35.5061 158.077 35.2925C158.426 35.0789 158.68 34.7935 158.839 34.4362V33.1214H157.657C156.999 33.1287 156.484 33.2503 156.112 33.486C155.74 33.718 155.554 34.0384 155.554 34.4473C155.554 34.7824 155.678 35.0605 155.924 35.2815C156.175 35.5025 156.498 35.6129 156.896 35.6129Z" fill="#3C425F"/>
<path fill-rule="evenodd" clip-rule="evenodd" d="M0 12C0 7.58172 3.58172 4 8 4H25C29.4183 4 33 7.58172 33 12V27C33 31.4183 29.4183 35 25 35H15L5 40V34.4185C2.06817 33.2317 0 30.3574 0 27V12ZM24.9999 16C24.9999 13.7909 23.2091 12 20.9999 12H11.9999C9.7908 12 7.99994 13.7909 7.99994 16V22C7.99994 24.2091 9.7908 26 11.9999 26H13.9999L21.9999 30V25.874C23.7252 25.4299 24.9999 23.8638 24.9999 22V16Z" fill="url(#paint0_linear)"/>
</g>
<defs>
<linearGradient id="paint0_linear" x1="33" y1="4" x2="5.85209e-07" y2="40" gradientUnits="userSpaceOnUse">
<stop stop-color="#6F85EF"/>
<stop offset="1" stop-color="#0DE1D4"/>
</linearGradient>
<clipPath id="clip0">
<rect width="1440" height="980" fill="white" transform="translate(-30 -20)"/>
</clipPath>
</defs>
</svg>
